<svg width="13" height="13" viewBox="0 0 13 13" fill="none" xmlns="http://www.w3.org/2000/svg">
<path d="M2.77393 7.31229H8.9375C9.15299 7.31229 9.35965 7.22668 9.51202 7.07431C9.6644 6.92194 9.75 6.71527 9.75 6.49979C9.75 6.2843 9.6644 6.07763 9.51202 5.92526C9.35965 5.77289 9.15299 5.68729 8.9375 5.68729H2.77393L3.82446 4.63675C3.97612 4.48425 4.06112 4.27783 4.06082 4.06275C4.06052 3.84768 3.97495 3.6415 3.82287 3.48942C3.67079 3.33734 3.46461 3.25176 3.24953 3.25147C3.03446 3.25117 2.82804 3.33616 2.67553 3.48782L0.238034 5.92532C0.16257 6.00075 0.102707 6.0903 0.0618645 6.18887C0.0210218 6.28744 0 6.39309 0 6.49979C0 6.60648 0.0210218 6.71213 0.0618645 6.8107C0.102707 6.90927 0.16257 6.99882 0.238034 7.07425L2.67553 9.51175C2.7509 9.58754 2.84047 9.6477 2.93913 9.68881C3.03779 9.72992 3.14359 9.75115 3.25047 9.7513C3.35735 9.75145 3.4632 9.73051 3.56197 9.68968C3.66075 9.64885 3.75049 9.58893 3.82606 9.51335C3.90164 9.43778 3.96156 9.34803 4.00239 9.24926C4.04322 9.15049 4.06416 9.04463 4.06401 8.93775C4.06387 8.83088 4.04263 8.72508 4.00152 8.62642C3.96042 8.52776 3.90025 8.43819 3.82446 8.36282L2.77393 7.31229Z" fill="#BB1100"/>
<path d="M12.1875 1.30611e-07H5.6875C5.58078 -6.03933e-05 5.4751 0.0209142 5.3765 0.0617247C5.27789 0.102535 5.1883 0.162381 5.11284 0.237841C5.03738 0.313301 4.97754 0.402894 4.93672 0.501498C4.89591 0.600103 4.87494 0.705784 4.875 0.8125V2.4375C4.875 2.65299 4.9606 2.85965 5.11298 3.01202C5.26535 3.1644 5.47201 3.25 5.6875 3.25C5.90299 3.25 6.10965 3.1644 6.26202 3.01202C6.4144 2.85965 6.5 2.65299 6.5 2.4375V1.625H11.375V11.375H6.5V10.5625C6.5 10.347 6.4144 10.1403 6.26202 9.98798C6.10965 9.8356 5.90299 9.75 5.6875 9.75C5.47201 9.75 5.26535 9.8356 5.11298 9.98798C4.9606 10.1403 4.875 10.347 4.875 10.5625V12.1875C4.87494 12.2942 4.89591 12.3999 4.93672 12.4985C4.97754 12.5971 5.03738 12.6867 5.11284 12.7622C5.1883 12.8376 5.27789 12.8975 5.3765 12.9383C5.4751 12.9791 5.58078 13.0001 5.6875 13H12.1875C12.2942 13.0001 12.3999 12.9791 12.4985 12.9383C12.5971 12.8975 12.6867 12.8376 12.7622 12.7622C12.8376 12.6867 12.8975 12.5971 12.9383 12.4985C12.9791 12.3999 13.0001 12.2942 13 12.1875V0.8125C13.0001 0.705784 12.9791 0.600103 12.9383 0.501498C12.8975 0.402894 12.8376 0.313301 12.7622 0.237841C12.6867 0.162381 12.5971 0.102535 12.4985 0.0617247C12.3999 0.0209142 12.2942 -6.03933e-05 12.1875 1.30611e-07Z" fill="#BB1100"/>
</svg>
