<svg width="165" height="56" viewBox="0 0 165 56" fill="none" xmlns="http://www.w3.org/2000/svg">
<path d="M66.0161 19.707H70.6394C72.9338 19.707 74.5534 20.2308 75.4991 21.2783C76.462 22.3259 76.9439 23.9586 76.9439 26.1756V33.9798C76.9439 36.3196 76.471 38.0653 75.5254 39.2176C74.5978 40.3527 73.0471 40.9198 70.8758 40.9198H66.0161V19.707ZM70.6657 38.7986C71.6992 38.7986 72.4429 38.598 72.8985 38.1962C73.3713 37.7952 73.6603 37.2534 73.7654 36.5725C73.8885 35.8744 73.9492 34.8269 73.9492 33.4299V26.5423C73.9492 25.3376 73.8704 24.421 73.7128 23.7925C73.5733 23.1459 73.2663 22.6754 72.7934 22.3783C72.3206 22.064 71.5851 21.9069 70.5869 21.9069H68.9845V38.7986H70.6657ZM79.8687 19.707H84.1505C86.3045 19.707 87.8807 20.1522 88.8789 21.0427C89.8943 21.9159 90.4025 23.3473 90.4025 25.3376C90.4025 28.0612 89.5266 29.7111 87.7756 30.2872L90.7965 40.9198H87.9332L85.1487 30.9681H82.8371V40.9198H79.8687V19.707ZM83.9666 28.8469C85.2448 28.8469 86.156 28.5932 86.6986 28.0874C87.2592 27.5808 87.5392 26.6642 87.5392 25.3376C87.5392 24.4644 87.4431 23.7835 87.2502 23.2949C87.1623 23.0524 87.0262 22.83 86.8502 22.641C86.6742 22.452 86.4618 22.3003 86.2257 22.195C85.7357 21.9503 85.0436 21.8283 84.1505 21.8283H82.8371V28.8469H83.9666ZM93.1229 37.8034H95.9336V40.9198H93.1229V37.8034ZM97.7322 19.707H100.201L102.487 34.9488L105.35 19.7856H107.452L110.341 35.0274L112.574 19.707H114.991L111.576 40.9198H109.422L106.453 25.2066L103.459 40.9198H101.2L97.7322 19.707ZM117.578 19.707H125.827V21.9069H120.547V28.9254H124.828V31.0205H120.547V38.7986H125.879V40.9198H117.578V19.707ZM128.276 19.707H136.524V21.9069H131.244V28.9254H135.526V31.0205H131.244V38.7986H136.577V40.9198H128.276V19.707ZM138.973 19.707H143.596C145.891 19.707 147.51 20.2308 148.456 21.2783C149.419 22.3259 149.901 23.9586 149.901 26.1756V33.9798C149.901 36.3196 149.428 38.0653 148.482 39.2176C147.554 40.3527 146.004 40.9198 143.833 40.9198H138.973V19.707ZM143.623 38.7986C144.656 38.7986 145.4 38.598 145.856 38.1962C146.328 37.7952 146.617 37.2534 146.722 36.5725C146.845 35.8744 146.906 34.8269 146.906 33.4299V26.5423C146.906 25.3376 146.828 24.421 146.67 23.7925C146.53 23.1459 146.223 22.6754 145.75 22.3783C145.278 22.064 144.542 21.9069 143.544 21.9069H141.942V38.7986H143.623ZM156.083 33.4299L151.486 19.707H154.244L157.502 29.9468L160.706 19.707H163.491L158.92 33.4299V40.9198H156.083V33.4299Z" fill="#191919"/>
<g clip-path="url(#clip0)">
<path d="M29.3157 11.5273C34.8589 2.77108 43.3185 -1.51646 49.4805 0.48305C52.1855 1.41408 54.5468 3.16521 56.2482 5.50196C58.0148 8.02493 58.9694 11.0446 58.9803 14.1441C59.2041 20.2433 56.235 25.0408 53.786 28.5702C45.8004 40.111 35.3987 49.8334 29.4737 54.9999C29.4254 40.5068 29.3727 26.016 29.3157 11.5273Z" fill="black"/>
<path d="M29.6732 11.5348C24.13 2.7785 15.644 -1.48219 9.50835 0.490478C6.8022 1.41919 4.44027 3.17079 2.74066 5.50938C0.975241 8.03336 0.018666 11.0519 0.00198346 14.1516C-0.215267 20.2508 2.75383 25.0482 5.20283 28.5776C13.1884 40.1117 23.6362 49.8408 29.4888 55.0006C29.5547 40.512 29.6161 26.0234 29.6732 11.5348Z" fill="black"/>
<path d="M29.4738 13.6138C23.9372 4.56227 15.7343 -0.00707388 10.0266 1.83811C7.57265 2.68923 5.42903 4.27753 3.87771 6.39404C2.27268 8.68574 1.40544 11.4288 1.39578 14.2445C1.1917 19.9478 4.06862 24.4165 6.11605 27.3554C14.0161 38.6949 24.9049 49.2225 29.4738 53.5235V13.6138Z" fill="#D04A43"/>
<path d="M29.4736 13.6205C35.0102 4.56226 43.2131 -0.00709605 48.9209 1.83809C51.3762 2.68989 53.5202 4.28082 55.0697 6.40073C56.6716 8.69402 57.5385 11.4361 57.5516 14.2512C57.7557 19.9478 54.8788 24.4232 52.8314 27.3554C44.9445 38.7016 34.082 49.2225 29.4736 53.5302V13.6205Z" fill="#D04A43"/>
<path d="M39.7898 23.6655H42.6404L43.4962 20.6528C44.1853 24.4774 44.8721 28.2997 45.5568 32.1198L46.9722 16.3921L48.0322 23.4172H52.5154" stroke="white" stroke-width="0.97" stroke-linecap="round" stroke-linejoin="round"/>
<path d="M5.93164 23.5443H9.87507L11.2905 10.7622L12.8244 27.7513L14.174 19.2299L15.0562 23.6651H17.0443H19.0523" stroke="white" stroke-width="0.97" stroke-linecap="round" stroke-linejoin="round"/>
<path d="M18.6506 17.5126H19.704V24.8061C19.6904 24.9226 19.7056 25.0406 19.7481 25.1496C19.7907 25.2585 19.8592 25.355 19.9476 25.4301C20.0536 25.5123 20.183 25.5571 20.3162 25.5576H23.7132V17.5059H24.8653V33.7905H23.6935V26.8794H20.3623C20.1326 26.8629 19.9087 26.799 19.704 26.6915C19.4148 26.4989 19.1745 26.2392 19.0028 25.9336C18.8312 25.628 18.733 25.2853 18.7165 24.9336C18.6967 22.4577 18.6704 19.9818 18.6506 17.5126Z" fill="white"/>
<path d="M25.9319 22.9204H27.1695V19.7735C27.1556 19.6858 27.1589 19.5962 27.1793 19.5098C27.1996 19.4234 27.2366 19.342 27.288 19.2703C27.3954 19.1327 27.5514 19.0436 27.7225 19.022H30.3559C30.466 19.0222 30.5744 19.0506 30.671 19.1045C30.7676 19.1584 30.8494 19.2362 30.9089 19.3307C30.949 19.4097 30.9715 19.4967 30.9747 19.5856V24.6784C30.9804 24.8742 30.9307 25.0675 30.8315 25.2353C30.7322 25.4031 30.5877 25.5382 30.4151 25.6244H27.1234C26.8016 25.716 26.519 25.9143 26.3203 26.1881C26.1059 26.4769 25.9965 26.8326 26.0109 27.1945V33.7969H32.107V32.3476H27.1037V27.946C27.0774 27.7489 27.1218 27.5488 27.2288 27.3824C27.333 27.2287 27.4867 27.1171 27.6633 27.067H30.7904C31.1502 26.9832 31.4749 26.786 31.7186 26.5034C32.0269 26.0441 32.1581 25.4851 32.0873 24.9333C32.0544 22.9204 32.1268 22.4574 32.0873 19.4582C32.0864 19.0985 31.9785 18.7476 31.7779 18.4517C31.5175 18.0658 31.1215 17.7968 30.6719 17.7002H27.525C27.1548 17.7663 26.8116 17.9412 26.5375 18.2034C26.3411 18.4005 26.1852 18.6356 26.079 18.8948C25.9727 19.154 25.9182 19.4322 25.9187 19.7131L25.9319 22.9204Z" fill="white"/>
<path d="M37.0247 17.7002H35.708C35.0515 17.7002 34.4219 17.966 33.9577 18.4391C33.4935 18.9123 33.2327 19.554 33.2327 20.2231V31.2741C33.2327 31.9432 33.4935 32.5849 33.9577 33.058C34.4219 33.5311 35.0515 33.7969 35.708 33.7969H37.0247C37.6818 33.7969 38.3121 33.5314 38.7773 33.0584C39.2426 32.5855 39.5049 31.9438 39.5066 31.2741V20.2231C39.5066 19.8912 39.4424 19.5626 39.3176 19.2561C39.1927 18.9495 39.0098 18.6711 38.7793 18.4368C38.5487 18.2024 38.2751 18.0167 37.974 17.8903C37.6729 17.7639 37.3503 17.6993 37.0247 17.7002ZM38.5784 30.2743C38.5784 30.858 38.3508 31.4178 37.9459 31.8305C37.5409 32.2432 36.9917 32.4751 36.419 32.4751C35.8463 32.4751 35.2971 32.2432 34.8921 31.8305C34.4872 31.4178 34.2597 30.858 34.2597 30.2743V21.1557C34.2597 20.572 34.4872 20.0123 34.8921 19.5995C35.2971 19.1868 35.8463 18.9549 36.419 18.9549C36.9917 18.9549 37.5409 19.1868 37.9459 19.5995C38.3508 20.0123 38.5784 20.572 38.5784 21.1557V30.2743Z" fill="white"/>
<path d="M34.2664 27.3891L38.5784 22.0615V23.9805L34.2664 29.5094V27.3891Z" fill="white"/>
</g>
<defs>
<clipPath id="clip0">
<rect width="59" height="55" fill="white"/>
</clipPath>
</defs>
</svg>
