<svg width="20" height="22" viewBox="0 0 20 22" fill="none" xmlns="http://www.w3.org/2000/svg">
<path fill-rule="evenodd" clip-rule="evenodd" d="M4.37524 5.3125C4.37524 2.37849 6.75373 0 9.68774 0C12.6217 0 15.0002 2.37849 15.0002 5.3125C15.0002 8.24651 12.6217 10.625 9.68774 10.625C6.75373 10.625 4.37524 8.24651 4.37524 5.3125ZM9.68774 1.875C7.78924 1.875 6.25024 3.41403 6.25024 5.3125C6.25024 7.21098 7.78924 8.75 9.68774 8.75C11.5862 8.75 13.1252 7.21098 13.1252 5.3125C13.1252 3.41403 11.5862 1.875 9.68774 1.875Z" fill="#0D0D0D"/>
<path fill-rule="evenodd" clip-rule="evenodd" d="M4.6875 14.375C3.1342 14.375 1.875 15.6342 1.875 17.1875V18.6729C1.875 18.6955 1.89139 18.7147 1.91371 18.7184C7.06215 19.559 12.3129 19.559 17.4613 18.7184C17.4836 18.7147 17.5 18.6955 17.5 18.6729V17.1875C17.5 15.6342 16.2407 14.375 14.6875 14.375H14.2614C14.2285 14.375 14.1958 14.3802 14.1644 14.3904L13.0825 14.7437C10.8765 15.464 8.4985 15.464 6.29248 14.7437L5.21059 14.3904C5.17928 14.3802 5.14652 14.375 5.11359 14.375H4.6875ZM0 17.1875C0 14.5986 2.09866 12.5 4.6875 12.5H5.11359C5.3442 12.5 5.57336 12.5365 5.79259 12.608L6.87449 12.9614C8.70237 13.5581 10.6726 13.5581 12.5005 12.9614L13.5824 12.608C13.8016 12.5365 14.0307 12.5 14.2614 12.5H14.6875C17.2764 12.5 19.375 14.5986 19.375 17.1875V18.6729C19.375 19.6144 18.6926 20.4171 17.7634 20.5689C12.4149 21.4421 6.96012 21.4421 1.61159 20.5689C0.68235 20.4171 0 19.6144 0 18.6729V17.1875Z" fill="#0D0D0D"/>
</svg>
